<svg width="155" height="155" viewBox="0 0 155 155" fill="none" xmlns="http://www.w3.org/2000/svg">
<g clip-path="url(#clip0)">
<path d="M3.80266 96.5934C4.65201 97.1835 5.54893 97.7019 6.48416 98.1434C7.60016 98.7143 9.47307 99.6702 9.60483 100.339C9.76719 101.222 9.66101 102.134 9.29999 102.956C8.91508 103.783 8.51208 104.493 8.16333 105.106C7.21782 106.777 5.63424 109.577 8.02124 111.528C8.57924 112.044 9.54283 112.791 10.4212 113.465C9.77456 114.596 9.48209 115.894 9.58158 117.193C9.71865 118.216 10.2732 119.136 11.1135 119.735C11.687 120.138 12.2992 120.489 12.9012 120.833C14.4305 121.701 15.0272 122.106 15.2262 122.918C15.3697 123.957 15.2815 125.016 14.9678 126.018C14.8154 126.707 14.6682 127.4 14.5803 128.084C14.3238 130.439 14.6147 132.82 15.4302 135.044C16.5923 139.148 20.3049 142.008 24.5701 142.083C25.282 142.081 25.9919 142.006 26.6884 141.859C34.0684 140.109 41.3407 137.933 48.4685 135.341C54.2887 138.756 57.9648 149.141 58.9232 153.039C59.2094 154.192 60.2443 155.001 61.4317 155L126.273 154.819C127.095 154.818 127.867 154.425 128.353 153.762C128.838 153.099 128.979 152.245 128.733 151.461C128.094 149.711 127.213 148.058 126.116 146.553C125.496 145.66 124.938 144.726 124.444 143.757C123.274 141.39 122.299 138.931 121.528 136.405C120.052 131.413 119.029 126.298 118.472 121.122C117.781 115.145 118.329 109.09 120.081 103.333C120.575 101.993 119.89 100.506 118.549 100.011C117.209 99.5168 115.721 100.203 115.227 101.543C113.198 108.077 112.558 114.962 113.349 121.758C113.945 127.242 115.033 132.661 116.599 137.95C117.449 140.727 118.521 143.431 119.805 146.036C120.394 147.206 121.063 148.334 121.807 149.412L121.98 149.671L63.3847 149.833C61.6697 143.705 58.5571 138.058 54.2913 133.336L56.6163 132.522C58.3472 131.918 59.6517 131.463 60.3208 131.249C71.3878 127.748 76.9213 122.708 76.7715 116.266C76.7378 114.863 75.591 113.744 74.1882 113.744H74.1417C72.7158 113.778 71.5871 114.961 71.6203 116.387C71.6823 119.045 69.5046 122.923 58.7657 126.32C58.0656 126.545 56.7171 127.015 54.9268 127.64C53.0074 128.312 50.5662 129.164 47.8743 130.079H47.8562C40.5862 132.743 33.1683 134.986 25.6396 136.795C23.2308 137.258 20.8856 135.739 20.3231 133.352C19.7712 131.882 19.5635 130.305 19.716 128.743C19.7832 128.201 19.9072 127.663 20.026 127.123C20.5524 125.337 20.6296 123.449 20.2507 121.626C19.4999 119.253 17.7535 117.325 15.4664 116.343L14.9317 116.036C15.2106 115.472 15.5437 114.938 15.9262 114.439C16.3596 113.89 16.5518 113.189 16.4588 112.495C16.3658 111.802 15.9956 111.176 15.4328 110.76C14.8128 110.306 13.3507 109.21 12.2812 108.348C12.4052 108.123 12.5395 107.875 12.6687 107.65C13.0742 106.94 13.5367 106.113 13.9887 105.157C14.8062 103.346 15.047 101.328 14.6785 99.3757C14.0585 96.224 11.0386 94.6792 8.83757 93.5528C8.09435 93.1997 7.38152 92.7858 6.70633 92.3154C6.15703 91.9442 5.64178 91.5249 5.16666 91.0625C5.16666 90.6698 5.58774 89.7192 7.55624 87.3244C12.1832 81.3679 16.1503 74.927 19.3879 68.1148C19.9933 67.0475 20.3343 65.8508 20.3825 64.6247C20.1157 62.028 18.7396 59.6734 16.6082 58.1663C15.5749 57.2079 14.5803 56.3038 14.4641 55.4616C14.4812 54.8519 14.6181 54.2515 14.8671 53.6946C15.2882 52.5863 15.7738 51.5013 16.2621 50.4138C17.3214 48.2295 18.1675 45.9482 18.7886 43.6015L19.0469 42.501C19.5922 39.9184 20.2953 37.3716 21.1523 34.875C23.1888 29.2543 26.3417 24.104 30.4213 19.7341C35.3632 14.5054 43.1417 10.8061 53.5783 8.73167C61.5598 6.97953 69.6586 5.81221 77.81 5.239C92.3955 4.51825 104.969 8.90734 118.516 19.5016C120.341 20.9233 122.054 22.483 123.641 24.1671C124.619 25.2065 126.254 25.2562 127.294 24.2782C128.333 23.3001 128.383 21.6647 127.405 20.6253C125.637 18.7484 123.726 17.0107 121.69 15.4277C107.102 4.01709 93.4676 -0.710414 77.5465 0.0800859C69.1405 0.663115 60.7886 1.86155 52.5579 3.66575C40.9097 5.99075 32.4441 10.075 26.6652 16.182C22.1066 21.0598 18.582 26.8093 16.3034 33.0848C15.3731 35.7851 14.6087 38.5397 14.0146 41.3333L13.7562 42.4235C13.2049 44.4496 12.4654 46.4198 11.5475 48.3083C11.0308 49.4863 10.4935 50.6643 10.0311 51.8837C9.43651 53.241 9.20163 54.7286 9.34908 56.203C9.86887 58.5182 11.205 60.5687 13.113 61.9793C14.3762 63.1367 15.2055 63.953 15.2158 64.6634C15.1234 65.0561 14.9755 65.4336 14.7767 65.7846C11.6831 72.2978 7.89363 78.457 3.47458 84.1547C1.60166 86.4332 -0.361675 89.0914 0.0516583 91.7523C0.599633 93.805 1.95184 95.5502 3.80266 96.5934Z" fill="#F6EDED"/>
<path d="M28.8481 45.9833L29.1064 44.8596C29.5596 42.7012 30.1366 40.5708 30.8346 38.4788C32.3927 34.1669 34.8035 30.2132 37.9233 26.8537C41.2716 23.6973 45.3696 21.4469 49.8299 20.3153C50.7305 20.0615 51.4234 19.3406 51.6414 18.4307C51.8594 17.5208 51.5684 16.5641 50.8806 15.9298C50.1928 15.2955 49.2157 15.0826 48.3264 15.3734C43.0032 16.7568 38.1265 19.4892 34.1671 23.3068C30.5697 27.1703 27.7887 31.7199 25.9909 36.6833C25.2164 38.9738 24.5781 41.308 24.0792 43.6738L23.8209 44.7924C23.6003 45.6945 23.8809 46.6455 24.5558 47.2834C25.2307 47.9213 26.196 48.1479 27.0842 47.8769C27.9724 47.6059 28.6468 46.879 28.8506 45.973L28.8481 45.9833Z" fill="#F6EDED"/>
<path d="M23.25 56.8333C24.6767 56.8333 25.8333 55.6767 25.8333 54.25C25.8333 52.8233 24.6767 51.6667 23.25 51.6667C21.8233 51.6667 20.6667 52.8233 20.6667 54.25C20.6667 55.6767 21.8233 56.8333 23.25 56.8333Z" fill="#F6EDED"/>
<path d="M140.569 28.675C140.251 27.3133 138.907 26.4523 137.537 26.7323C129.606 28.5999 122.109 31.9785 115.457 36.6833C112.422 29.1549 108.045 22.2401 102.54 16.275C102.055 15.78 101.391 15.5008 100.698 15.5C99.9911 15.467 99.3074 15.758 98.8409 16.2905C93.3833 22.3069 89.0597 29.2613 86.0792 36.8177C79.3808 32.0441 71.8161 28.6219 63.8083 26.7427C62.4398 26.4623 61.0963 27.3206 60.7755 28.6802C59.5047 34.9156 59.1738 41.306 59.7938 47.6393C56.0786 47.2819 52.3382 47.2707 48.6209 47.6057C47.2346 47.7642 46.2247 48.9948 46.3398 50.3853C46.4173 51.3102 48.3884 73.1393 63.3898 85.4593C74.1313 94.2787 88.3474 95.5988 95.901 95.5988C97.7094 95.5988 99.1173 95.5239 100.034 95.4567C100.242 95.5272 100.459 95.5706 100.678 95.5859C100.919 95.5731 101.158 95.5252 101.385 95.4438C102.217 95.5007 103.506 95.5678 105.237 95.5678C112.68 95.5678 127.17 94.2968 137.942 85.467C152.933 73.1316 154.915 51.305 155 50.375C155.114 48.9863 154.106 47.7577 152.721 47.5979C149.007 47.2652 145.27 47.2834 141.559 47.6522C142.179 41.3125 141.845 34.9158 140.569 28.675ZM136.26 48.3729C128.513 49.5141 121.196 52.6494 115.025 57.4714C114.586 57.8202 114.181 58.1689 113.773 58.5487L113.716 58.6055L113.685 58.6391C113.649 58.6752 113.612 58.7114 113.579 58.7502C109.229 62.8334 105.745 67.7496 103.333 73.2065C103.333 72.3075 103.307 71.3827 103.266 70.4423C103.431 63.429 105.429 56.581 109.061 50.5791C110.95 47.6822 113.26 45.0825 115.914 42.8653C121.85 38.0848 128.688 34.5485 136.02 32.4673C136.801 37.7371 136.882 43.0871 136.26 48.3781V48.3729ZM100.716 22.0074C105.211 27.4205 108.764 33.551 111.225 40.1424C106.341 44.4976 102.696 50.0683 100.662 56.2882C98.6458 50.1645 95.0809 44.6658 90.3133 40.3258C92.7276 33.6788 96.2445 27.4859 100.716 22.0074ZM65.3376 32.4673C72.7495 34.5702 79.6538 38.1647 85.6271 43.0306C88.2016 45.2094 90.4413 47.7555 92.2741 50.5868C95.9024 56.581 97.9057 63.4173 98.0865 70.4217C98.0426 71.362 98.022 72.2713 98.0168 73.1522C95.6122 67.802 92.1823 62.9749 87.9211 58.9439C87.7968 58.8015 87.6564 58.6741 87.5026 58.5642C87.1151 58.218 86.7535 57.8512 86.3479 57.5308C80.16 52.7011 72.8358 49.5407 65.0767 48.3522C64.4672 43.0687 64.5549 37.728 65.3376 32.4673ZM66.6758 81.4628C56.2314 72.8887 52.8343 58.4712 51.85 52.5786C57.7917 52.3874 72.5916 52.8989 83.067 61.4988C93.5425 70.0987 96.9085 84.4905 97.8928 90.3831C91.9666 90.5846 77.1512 90.0627 66.6758 81.4628ZM149.485 52.5734C148.511 58.4531 145.137 72.8603 134.659 81.4706C124.103 90.1222 109.342 90.5897 103.444 90.3805C103.62 89.2852 103.878 87.9186 104.245 86.3634C104.245 86.3092 104.268 86.2523 104.279 86.1981C106.15 77.1571 110.663 68.8754 117.247 62.403C117.33 62.3274 117.408 62.2472 117.482 62.1627C117.741 61.938 117.999 61.721 118.275 61.4911C124.29 56.9262 131.415 54.0517 138.914 53.165C142.413 52.6592 145.95 52.4612 149.485 52.5734Z" fill="#F6EDED"/>
</g>
<defs>
<clipPath id="clip0">
<rect width="155" height="155" fill="white"/>
</clipPath>
</defs>
</svg>
