<svg width="298" height="151" viewBox="0 0 298 151" fill="none" xmlns="http://www.w3.org/2000/svg">
<path d="M287.506 41.9807C293.05 64.7888 235.55 98.3469 159.076 116.935C82.602 135.523 16.1135 132.102 10.5697 109.294C5.02583 86.4862 62.5261 52.928 139 34.3399C215.474 15.7518 281.962 19.1727 287.506 41.9807Z" fill="#F7EDED" fill-opacity="0.86"/>
<path d="M36.125 81.0625V98H30.875V53.1875H43.1875C47.9792 53.1875 51.6875 54.3542 54.3125 56.6875C56.9583 59.0208 58.2812 62.3125 58.2812 66.5625C58.2812 70.8125 56.8125 74.2917 53.875 77C50.9583 79.7083 47.0104 81.0625 42.0312 81.0625H36.125ZM36.125 57.9375V76.3125H41.625C45.25 76.3125 48.0104 75.4896 49.9062 73.8438C51.8229 72.1771 52.7812 69.8333 52.7812 66.8125C52.7812 60.8958 49.2812 57.9375 42.2812 57.9375H36.125ZM100.438 98H95.1875V77.5625H72V98H66.75V53.1875H72V72.8438H95.1875V53.1875H100.438V98ZM141.312 53.1875L126.531 81.4375V98H121.281V81.5625L106.875 53.1875H112.844L122.875 73.4375C123 73.6875 123.365 74.6042 123.969 76.1875H124.062C124.271 75.4792 124.667 74.5625 125.25 73.4375L135.75 53.1875H141.312ZM145.469 96.1875V90C146.177 90.625 147.021 91.1875 148 91.6875C149 92.1875 150.042 92.6146 151.125 92.9688C152.229 93.3021 153.333 93.5625 154.438 93.75C155.542 93.9375 156.562 94.0312 157.5 94.0312C160.729 94.0312 163.135 93.4375 164.719 92.25C166.323 91.0417 167.125 89.3125 167.125 87.0625C167.125 85.8542 166.854 84.8021 166.312 83.9062C165.792 83.0104 165.062 82.1979 164.125 81.4688C163.188 80.7188 162.073 80.0104 160.781 79.3438C159.51 78.6562 158.135 77.9375 156.656 77.1875C155.094 76.3958 153.635 75.5938 152.281 74.7812C150.927 73.9688 149.75 73.0729 148.75 72.0938C147.75 71.1146 146.958 70.0104 146.375 68.7812C145.812 67.5312 145.531 66.0729 145.531 64.4062C145.531 62.3646 145.979 60.5938 146.875 59.0938C147.771 57.5729 148.948 56.3229 150.406 55.3438C151.865 54.3646 153.521 53.6354 155.375 53.1562C157.25 52.6771 159.156 52.4375 161.094 52.4375C165.51 52.4375 168.729 52.9688 170.75 54.0312V59.9375C168.104 58.1042 164.708 57.1875 160.562 57.1875C159.417 57.1875 158.271 57.3125 157.125 57.5625C155.979 57.7917 154.958 58.1771 154.062 58.7188C153.167 59.2604 152.438 59.9583 151.875 60.8125C151.312 61.6667 151.031 62.7083 151.031 63.9375C151.031 65.0833 151.24 66.0729 151.656 66.9062C152.094 67.7396 152.729 68.5 153.562 69.1875C154.396 69.875 155.406 70.5417 156.594 71.1875C157.802 71.8333 159.188 72.5417 160.75 73.3125C162.354 74.1042 163.875 74.9375 165.312 75.8125C166.75 76.6875 168.01 77.6562 169.094 78.7188C170.177 79.7812 171.031 80.9583 171.656 82.25C172.302 83.5417 172.625 85.0208 172.625 86.6875C172.625 88.8958 172.188 90.7708 171.312 92.3125C170.458 93.8333 169.292 95.0729 167.812 96.0312C166.354 96.9896 164.667 97.6771 162.75 98.0938C160.833 98.5312 158.812 98.75 156.688 98.75C155.979 98.75 155.104 98.6875 154.062 98.5625C153.021 98.4583 151.958 98.2917 150.875 98.0625C149.792 97.8542 148.76 97.5938 147.781 97.2812C146.823 96.9479 146.052 96.5833 145.469 96.1875ZM191.188 53.1875V57.6875H186.812V93.5H191.188V98H177.188V93.5H181.562V57.6875H177.188V53.1875H191.188ZM229.125 96.125C225.812 97.875 221.688 98.75 216.75 98.75C210.375 98.75 205.271 96.6979 201.438 92.5938C197.604 88.4896 195.688 83.1042 195.688 76.4375C195.688 69.2708 197.844 63.4792 202.156 59.0625C206.469 54.6458 211.938 52.4375 218.562 52.4375C222.812 52.4375 226.333 53.0521 229.125 54.2812V59.875C225.917 58.0833 222.375 57.1875 218.5 57.1875C213.354 57.1875 209.177 58.9062 205.969 62.3438C202.781 65.7812 201.188 70.375 201.188 76.125C201.188 81.5833 202.677 85.9375 205.656 89.1875C208.656 92.4167 212.583 94.0312 217.438 94.0312C221.938 94.0312 225.833 93.0312 229.125 91.0312V96.125ZM236.156 96.1875V90C236.865 90.625 237.708 91.1875 238.688 91.6875C239.688 92.1875 240.729 92.6146 241.812 92.9688C242.917 93.3021 244.021 93.5625 245.125 93.75C246.229 93.9375 247.25 94.0312 248.188 94.0312C251.417 94.0312 253.823 93.4375 255.406 92.25C257.01 91.0417 257.812 89.3125 257.812 87.0625C257.812 85.8542 257.542 84.8021 257 83.9062C256.479 83.0104 255.75 82.1979 254.812 81.4688C253.875 80.7188 252.76 80.0104 251.469 79.3438C250.198 78.6562 248.823 77.9375 247.344 77.1875C245.781 76.3958 244.323 75.5938 242.969 74.7812C241.615 73.9688 240.438 73.0729 239.438 72.0938C238.438 71.1146 237.646 70.0104 237.062 68.7812C236.5 67.5312 236.219 66.0729 236.219 64.4062C236.219 62.3646 236.667 60.5938 237.562 59.0938C238.458 57.5729 239.635 56.3229 241.094 55.3438C242.552 54.3646 244.208 53.6354 246.062 53.1562C247.938 52.6771 249.844 52.4375 251.781 52.4375C256.198 52.4375 259.417 52.9688 261.438 54.0312V59.9375C258.792 58.1042 255.396 57.1875 251.25 57.1875C250.104 57.1875 248.958 57.3125 247.812 57.5625C246.667 57.7917 245.646 58.1771 244.75 58.7188C243.854 59.2604 243.125 59.9583 242.562 60.8125C242 61.6667 241.719 62.7083 241.719 63.9375C241.719 65.0833 241.927 66.0729 242.344 66.9062C242.781 67.7396 243.417 68.5 244.25 69.1875C245.083 69.875 246.094 70.5417 247.281 71.1875C248.49 71.8333 249.875 72.5417 251.438 73.3125C253.042 74.1042 254.562 74.9375 256 75.8125C257.438 76.6875 258.698 77.6562 259.781 78.7188C260.865 79.7812 261.719 80.9583 262.344 82.25C262.99 83.5417 263.312 85.0208 263.312 86.6875C263.312 88.8958 262.875 90.7708 262 92.3125C261.146 93.8333 259.979 95.0729 258.5 96.0312C257.042 96.9896 255.354 97.6771 253.438 98.0938C251.521 98.5312 249.5 98.75 247.375 98.75C246.667 98.75 245.792 98.6875 244.75 98.5625C243.708 98.4583 242.646 98.2917 241.562 98.0625C240.479 97.8542 239.448 97.5938 238.469 97.2812C237.51 96.9479 236.74 96.5833 236.156 96.1875Z" fill="black"/>
</svg>
