<svg width="155" height="155" viewBox="0 0 155 155" fill="none" xmlns="http://www.w3.org/2000/svg">
<g clip-path="url(#clip0)">
<path d="M3.7981 96.5922C4.64816 97.1812 5.54498 97.6996 6.4796 98.1422C7.59819 98.7131 9.46852 99.6689 9.60027 100.341C9.76469 101.223 9.65935 102.134 9.29802 102.955C8.9131 103.782 8.50752 104.492 8.16135 105.107C7.21327 106.776 5.63227 109.573 8.01927 111.526C8.57727 112.043 9.54085 112.79 10.4218 113.464C9.77443 114.594 9.48106 115.893 9.57961 117.192C9.7153 118.208 10.2638 119.124 11.096 119.723C11.6773 120.137 12.2999 120.498 12.9044 120.847C14.4234 121.713 15.0175 122.116 15.2294 122.914C15.3683 123.965 15.2712 125.033 14.9452 126.042C14.7928 126.714 14.6455 127.383 14.5499 128.07C14.2939 130.426 14.5929 132.81 15.4231 135.03C16.5825 139.143 20.3026 142.01 24.5759 142.082C25.2851 142.079 25.9922 142.005 26.6864 141.86C34.0665 140.111 41.3388 137.935 48.4665 135.342C54.2842 138.757 57.9629 149.142 58.9213 153.041C59.2084 154.192 60.2431 155 61.4297 154.999L126.271 154.818C127.093 154.816 127.865 154.424 128.351 153.761C128.836 153.098 128.977 152.244 128.731 151.46C128.092 149.709 127.211 148.057 126.114 146.551C125.493 145.66 124.934 144.728 124.44 143.761C123.272 141.392 122.296 138.932 121.523 136.407C120.05 131.414 119.027 126.299 118.467 121.124C117.56 113.395 118.732 105.564 121.862 98.4393C123.771 94.4879 126.125 90.7672 128.878 87.349C130.428 85.2565 132.037 83.0891 133.481 80.8132C135.964 76.9562 137.765 72.7004 138.803 68.2324C139.1 66.8531 138.236 65.4906 136.862 65.1717C135.487 64.8528 134.111 65.6955 133.771 67.0647C132.863 70.9642 131.29 74.6782 129.121 78.0439C127.78 80.1648 126.23 82.2521 124.729 84.2723C121.74 88.0022 119.189 92.0631 117.126 96.3752C113.628 104.343 112.32 113.101 113.339 121.744C113.935 127.232 115.025 132.656 116.597 137.949C117.445 140.728 118.518 143.434 119.803 146.04C120.392 147.204 121.061 148.326 121.805 149.398L121.978 149.656L63.3827 149.832C61.6656 143.704 58.5523 138.058 54.2868 133.335L56.6118 132.526C58.3478 131.919 59.6575 131.462 60.3344 131.235C71.3962 127.708 76.9297 122.671 76.7773 116.251C76.7701 115.566 76.4857 114.912 75.9888 114.44C75.4919 113.967 74.8249 113.716 74.1397 113.743C72.7138 113.777 71.5852 114.96 71.6184 116.386C71.6804 119.028 69.5026 122.898 58.7637 126.319C58.061 126.543 56.697 127.016 54.9119 127.644C52.9925 128.313 50.559 129.165 47.8724 130.077H47.8543C40.5892 132.741 33.1765 134.984 25.6531 136.794C23.2469 137.246 20.9079 135.735 20.3314 133.356C19.7758 131.897 19.5577 130.332 19.6934 128.778C19.7683 128.261 19.8897 127.719 20.0085 127.192C20.5583 125.389 20.6471 123.476 20.2669 121.63C19.5166 119.264 17.7767 117.341 15.498 116.357L14.9426 116.04C15.2211 115.474 15.5551 114.937 15.9398 114.438C16.3726 113.888 16.5639 113.186 16.4699 112.493C16.376 111.8 16.0047 111.174 15.4412 110.759C14.8238 110.305 13.3745 109.209 12.2895 108.346C12.4135 108.122 12.5479 107.874 12.6796 107.651C13.0852 106.938 13.5502 106.101 13.9997 105.153C14.8184 103.344 15.0584 101.326 14.6869 99.3744C14.0694 96.2228 11.0495 94.6779 8.84594 93.5516C8.10354 93.1984 7.39156 92.7846 6.71727 92.3142C6.16366 91.9435 5.64487 91.5233 5.16727 91.0587C5.16727 90.666 5.58835 89.7179 7.55427 87.3232C12.177 81.3671 16.1397 74.9271 19.373 68.1161C19.98 67.0484 20.3219 65.8507 20.3702 64.6234C20.0996 62.0242 18.7177 59.669 16.5804 58.1651C15.5342 57.2041 14.5448 56.2999 14.4337 55.5379C14.4574 54.9049 14.5993 54.2819 14.8522 53.7011C15.2733 52.5954 15.7615 51.5104 16.2472 50.4229C17.3365 48.179 18.2019 45.8332 18.8305 43.4194C19.4225 40.5242 20.1991 37.6698 21.1555 34.8738C23.1917 29.253 26.3447 24.1026 30.4245 19.7329C35.3639 14.5016 43.1397 10.8023 53.5764 8.73044C61.5595 6.97775 69.66 5.81042 77.8132 5.23777C80.5565 5.0964 83.3064 5.15511 86.0411 5.41343C86.9622 5.49927 87.8591 5.08718 88.394 4.33241C88.9289 3.57764 89.0205 2.59485 88.6343 1.75425C88.248 0.913643 87.4427 0.342934 86.5216 0.257101C83.5365 -0.0164188 80.5356 -0.0759876 77.5419 0.0788508C69.1369 0.662051 60.7858 1.86048 52.5559 3.66452C40.9077 5.98952 32.4421 10.0738 26.6658 16.1808C22.1044 21.0569 18.5787 26.8069 16.3014 33.0835C15.2545 36.138 14.4046 39.2564 13.7569 42.4197C13.2047 44.4483 12.4626 46.4204 11.5404 48.3097C11.0237 49.4851 10.4915 50.6605 10.0265 51.8824C9.43859 53.2483 9.19722 54.7382 9.32385 56.2199C9.85824 58.5258 11.1985 60.5651 13.1033 61.9704C14.3691 63.1303 15.2035 63.9466 15.2139 64.6596C15.1198 65.0518 14.972 65.4291 14.7747 65.7808C11.6818 72.2949 7.89138 78.4543 3.47002 84.1509C1.59969 86.432 -0.363647 89.0902 0.0471031 91.751C0.597211 93.8027 1.94884 95.5471 3.7981 96.5922Z" fill="#F6EDED"/>
<path d="M30.8398 38.4632C32.3955 34.1503 34.8067 30.1962 37.9285 26.8382C41.3721 23.1932 47.3267 20.5091 55.6295 18.8583C57.0291 18.5808 57.9388 17.2212 57.6613 15.8216C57.3838 14.422 56.0242 13.5123 54.6246 13.7898C45.2497 15.655 38.3702 18.848 34.1749 23.281C30.57 27.1501 27.7861 31.7092 25.9909 36.6833C25.1213 39.2641 24.4129 41.8964 23.87 44.5651L28.9152 45.6837C29.4104 43.2402 30.0531 40.829 30.8398 38.4632Z" fill="#F6EDED"/>
<path d="M84.8857 14.4667L83.3357 22.196C81.8415 22.6867 80.3871 23.2912 78.9854 24.0043L72.4263 19.6127C70.3769 18.2705 67.6667 18.5521 65.937 20.2869L61.6486 24.5727C59.8797 26.3093 59.5935 29.0575 60.9666 31.1214L65.3376 37.6495C64.6245 39.0512 64.0199 40.5056 63.5293 41.9998L55.8103 43.5498C53.3983 44.037 51.6646 46.1577 51.6666 48.6183V54.715C51.6649 57.1715 53.3931 59.2896 55.7999 59.7809L63.5293 61.3309C64.0199 62.8251 64.6245 64.2795 65.3376 65.6812L60.9459 72.2403C59.6038 74.2897 59.8854 76.9999 61.6202 78.7296L65.9085 83.018C67.6483 84.7788 70.3904 85.0634 72.4547 83.6974L78.9828 79.3264C80.3845 80.0395 81.8389 80.6441 83.3331 81.1347L84.8831 88.8537C85.3693 91.2667 87.4902 93.0017 89.9516 93H96.0483C98.5048 93.0017 100.623 91.2735 101.114 88.8667L102.664 81.1373C104.158 80.6467 105.613 80.0421 107.015 79.329L113.574 83.7206C115.623 85.0628 118.333 84.7812 120.063 83.0464L124.349 78.7607C126.118 77.024 126.404 74.2758 125.031 72.2119L120.66 65.6838C121.373 64.2821 121.977 62.8277 122.468 61.3335L130.187 59.7835C131.72 59.4735 133.029 58.483 133.744 57.0917L137.637 59.7008C138.389 60.174 139.258 60.4256 140.146 60.4267C141.384 60.427 142.572 59.9333 143.445 59.055L146.881 55.6192C148.443 54.0487 148.694 51.5993 147.482 49.7447L144.15 44.7588C144.633 43.7873 145.051 42.7844 145.4 41.757L151.246 40.5919C153.434 40.1622 155.008 38.2407 155 36.0117V31.155C155.008 28.9342 153.444 27.0179 151.267 26.5799L145.395 25.4097C145.049 24.382 144.633 23.379 144.15 22.4078L147.534 17.3626C148.707 15.5147 148.438 13.1003 146.888 11.5552L143.452 8.11941C141.882 6.55598 139.432 6.30494 137.578 7.5175L132.592 10.85C131.621 10.3666 130.618 9.9489 129.59 9.59966L128.423 3.75358C127.993 1.56725 126.073 -0.00713342 123.845 -1.19134e-06H118.988C116.768 -0.00783792 114.851 1.55576 114.413 3.73291L113.243 9.60483C112.215 9.95385 111.212 10.3725 110.241 10.8577L105.196 7.47358C103.348 6.30293 100.934 6.57129 99.3885 8.11941L97.0635 10.4444C96.7295 10.3747 96.3895 10.3375 96.0483 10.3333H89.9516C87.4951 10.3316 85.377 12.0598 84.8857 14.4667ZM124.38 24.5933L123.173 23.3869C127.651 23.9863 131.213 27.439 131.95 31.896C132.688 36.3529 130.43 40.7693 126.384 42.78L122.463 42.005C121.972 40.5108 121.368 39.0564 120.655 37.6547L125.046 31.0956C126.393 29.0468 126.115 26.3335 124.38 24.6011V24.5933ZM102.757 12.0487L108.663 16.0167C109.491 16.572 110.565 16.6012 111.422 16.0916C112.901 15.2212 114.491 14.5564 116.149 14.1153C117.097 13.8594 117.817 13.0887 118.009 12.1262L119.396 5.16666H123.437L124.824 12.1417C125.016 13.1042 125.737 13.8749 126.684 14.1308C128.342 14.5719 129.933 15.2368 131.412 16.1071C132.272 16.612 133.345 16.5768 134.171 16.0167L140.076 12.0538L142.944 14.9213L138.983 20.8294C138.428 21.6576 138.399 22.7314 138.908 23.5884C139.779 25.0672 140.444 26.6577 140.885 28.3159C141.141 29.2634 141.911 29.9841 142.874 30.1759L149.849 31.5632V35.6035L142.887 36.9907C141.924 37.1825 141.153 37.9032 140.898 38.8507C140.456 40.509 139.792 42.0994 138.921 43.5782C138.412 44.4353 138.441 45.5091 138.996 46.3372L142.959 52.2427L140.092 55.1102L134.333 51.2585V48.6183C134.334 47.1058 133.673 45.6686 132.525 44.6839C137.073 40.3026 138.5 33.596 136.13 27.7426C133.759 21.8892 128.068 18.0654 121.752 18.0833C120.191 18.0931 118.64 18.3477 117.157 18.8377C115.895 18.6538 114.609 18.9367 113.54 19.6333L107.017 24.0043C105.615 23.2912 104.161 22.6867 102.667 22.196L101.117 14.477C101.071 14.27 101.012 14.0663 100.939 13.8673L102.757 12.0487ZM88.0916 24.7406L89.9516 15.5H96.0483L97.9057 24.7483C98.0988 25.7082 98.818 26.4764 99.7631 26.7323C101.898 27.3077 103.948 28.1588 105.862 29.264C106.716 29.7588 107.776 29.7248 108.596 29.1762L116.413 23.9475L120.742 28.2539L115.498 36.0788C114.95 36.8984 114.916 37.9589 115.41 38.812C116.516 40.7265 117.367 42.7768 117.942 44.9112C118.198 45.8563 118.966 46.5755 119.926 46.7687L129.167 48.6157V54.715L119.918 56.5724C118.958 56.7655 118.19 57.4847 117.934 58.4298C117.359 60.5642 116.508 62.6146 115.403 64.5291C114.908 65.3822 114.942 66.4426 115.49 67.2622L120.719 75.0794L116.413 79.4091L108.588 74.1649C107.768 73.6163 106.708 73.5822 105.855 74.0771C103.94 75.1823 101.89 76.0333 99.7554 76.6087C98.8103 76.8646 98.0911 77.6328 97.898 78.5927L96.0483 87.8333H89.9516L88.0942 78.585C87.9011 77.6251 87.1819 76.8569 86.2368 76.601C84.1024 76.0256 82.052 75.1745 80.1375 74.0693C79.2844 73.5745 78.224 73.6085 77.4044 74.1572L69.5872 79.3858L65.2575 75.0794L70.5017 67.2545C71.0503 66.4349 71.0844 65.3744 70.5895 64.5213C69.4843 62.6068 68.6333 60.5565 68.0579 58.4221C67.802 57.477 67.0338 56.7578 66.0739 56.5647L56.8333 54.715V48.6183L66.0816 46.7609C67.0415 46.5678 67.8097 45.8486 68.0656 44.9035C68.641 42.7691 69.4921 40.7187 70.5973 38.8042C71.0921 37.9511 71.0581 36.8907 70.5095 36.0711L65.2808 28.2539L69.5872 23.9242L77.4121 29.1684C78.2317 29.717 79.2922 29.7511 80.1453 29.2562C82.0598 28.151 84.1101 27.3 86.2445 26.7246C87.1856 26.4653 87.9002 25.6978 88.0916 24.7406Z" fill="#F6EDED"/>
<path d="M92.9999 69.75C102.987 69.75 111.083 61.6539 111.083 51.6667C111.083 41.6795 102.987 33.5834 92.9999 33.5834C83.0128 33.5834 74.9166 41.6795 74.9166 51.6667C74.928 61.6491 83.0175 69.7387 92.9999 69.75ZM92.9999 38.75C100.134 38.75 105.917 44.533 105.917 51.6667C105.917 58.8004 100.134 64.5834 92.9999 64.5834C85.8662 64.5834 80.0832 58.8004 80.0832 51.6667C80.0918 44.5366 85.8698 38.7586 92.9999 38.75Z" fill="#F6EDED"/>
<path d="M92.9999 54.25C94.4267 54.25 95.5833 53.0934 95.5833 51.6667C95.5833 50.2399 94.4267 49.0833 92.9999 49.0833C91.5732 49.0833 90.4166 50.2399 90.4166 51.6667C90.4166 53.0934 91.5732 54.25 92.9999 54.25Z" fill="#F6EDED"/>
<path d="M23.25 56.8334C24.6767 56.8334 25.8333 55.6768 25.8333 54.25C25.8333 52.8233 24.6767 51.6667 23.25 51.6667C21.8233 51.6667 20.6667 52.8233 20.6667 54.25C20.6667 55.6768 21.8233 56.8334 23.25 56.8334Z" fill="#F6EDED"/>
</g>
<defs>
<clipPath id="clip0">
<rect width="155" height="155" fill="white"/>
</clipPath>
</defs>
</svg>
