<svg width="155" height="155" viewBox="0 0 155 155" fill="none" xmlns="http://www.w3.org/2000/svg">
<g clip-path="url(#clip0)">
<path d="M139.453 39.9328C137.018 34.996 133.649 30.5231 129.423 26.5956C130.227 25.8633 130.749 24.873 130.887 23.7671C131.063 22.3473 130.583 20.9529 129.572 19.9411L119.603 9.97283C118.082 8.45248 115.684 8.23723 113.744 9.43789L106.556 13.4337C97.3921 10.3046 87.1737 8.64926 76.9266 8.64926C76.3714 8.64926 75.815 8.65773 75.2588 8.66984L76.4825 5.34395C76.51 5.26887 76.5337 5.19258 76.553 5.11508C76.8649 3.87779 76.5942 2.59084 75.8098 1.58393C75.0254 0.577021 73.8441 0 72.5678 0H61.4754C59.5606 0 57.9158 1.36293 57.449 3.32438L54.945 12.0962C45.1378 15.3819 37.0559 20.8835 31.5282 28.0703C30.7637 29.0642 30.9499 30.4898 31.9438 31.2545C32.3562 31.5718 32.8433 31.7255 33.3261 31.7255C34.007 31.7255 34.6806 31.4207 35.1277 30.8391C39.5374 25.1059 45.8047 20.5487 53.4032 17.498L51.4847 24.2194C51.4802 24.2349 51.4762 24.2506 51.472 24.2664C51.0588 25.8409 51.3682 27.4527 52.3218 28.6885C53.2458 29.8864 54.6795 30.5733 56.2556 30.5733H64.8491L62.651 45.5196C62.5968 45.8862 62.5856 46.2267 62.6161 46.5598C62.812 48.7029 64.4577 50.2583 66.529 50.2583C67.608 50.2701 69.2722 49.51 70.1111 47.9675C70.1955 47.7949 81.5643 25.4667 81.6469 25.2851C82.3084 23.7977 82.1728 22.0803 81.2852 20.6907C80.3603 19.2433 78.786 18.3639 77.0849 18.3381L71.7413 18.2313L73.5662 13.2712C74.6815 13.2185 75.8065 13.1903 76.9269 13.1903C85.2056 13.1903 93.4556 14.3211 101.079 16.4784L89.5944 22.8623C89.5802 22.8701 89.566 22.878 89.5521 22.8865C87.9315 23.8331 86.8707 25.3953 86.6415 27.172C86.4202 28.888 87.0272 30.6066 88.3078 31.8872L96.5199 40.0993C94.85 41.3166 92.0987 43.3247 89.2868 45.3882C87.5573 43.0716 85.4941 41.0426 83.1213 39.3452C82.1016 38.6162 80.683 38.8511 79.9534 39.8713C79.2241 40.8913 79.4593 42.3096 80.4793 43.0389C82.4601 44.4554 84.1839 46.1474 85.6301 48.0789C83.7034 49.5018 81.9781 50.7857 80.8401 51.6527C79.7796 50.2465 78.5048 48.9905 77.0401 47.9427C76.0208 47.2134 74.6025 47.4486 73.8723 48.4685C73.143 49.4885 73.3782 50.9068 74.3981 51.6361C77.7186 54.0904 79.7733 57.766 79.8538 62.2347C79.8538 66.5669 77.7074 70.6033 74.112 73.0325C73.0727 73.7345 72.7997 75.1459 73.5014 76.1849C73.9401 76.8343 74.6561 77.1845 75.3851 77.1845C75.8222 77.1845 76.2642 77.0583 76.6539 76.7949C81.501 73.5202 84.3946 68.0772 84.3946 62.2344C84.3946 61.4479 84.3362 60.6683 84.232 59.8984C84.4536 59.8479 89.5663 58.1632 89.9583 58.0421C90.1969 59.3941 90.3183 60.7697 90.3183 62.1542C90.3183 69.9682 86.4472 77.2484 79.9628 81.6291C78.9235 82.3311 78.6504 83.7425 79.3522 84.7818C79.7908 85.4312 80.5068 85.7814 81.2358 85.7814C81.673 85.7814 82.115 85.6552 82.5046 85.3921C90.2408 80.1656 94.8594 71.4785 94.8594 62.1542C94.8594 60.2899 94.6732 58.4383 94.3102 56.6249L100.519 54.6029C101.712 54.2148 102.364 52.9333 101.976 51.7408C101.587 50.5483 100.306 49.8969 99.1135 50.285L83.4204 55.3949C87.4553 52.3085 100.657 42.7032 100.81 42.5915C101.476 42.0959 101.893 41.3366 101.953 40.5086C102.014 39.6806 101.712 38.8687 101.125 38.2817L91.5186 28.6754C91.2289 28.3857 91.1033 28.0754 91.1448 27.7524C91.192 27.3879 91.4399 27.0476 91.8256 26.8166L116.372 13.1631L126.419 23.2095L107.785 31.82C106.949 32.2066 106.348 32.978 106.178 33.8835C106.007 34.789 106.287 35.7259 106.925 36.3898L113.876 43.6247C114.182 43.9399 114.307 44.3879 114.211 44.8236C114.157 45.0703 114.012 45.3939 113.633 45.5571L109.19 47.0039C107.997 47.392 107.345 48.6735 107.733 49.866C108.122 51.0585 109.404 51.7103 110.595 51.3218L115.11 49.8517C115.148 49.8396 115.185 49.8263 115.222 49.8124C116.959 49.1446 118.24 47.6448 118.646 45.8005C119.071 43.8711 118.506 41.8758 117.142 40.4708L111.838 34.95L125.107 28.8193C134.779 37.1839 139.682 48.1422 139.682 61.4143C139.682 80.8011 137.133 88.744 120.261 104.014C116.931 107.027 116.133 112.563 117.821 120.939C118.039 122.017 118.986 122.761 120.045 122.761C120.193 122.761 120.344 122.747 120.496 122.716C121.725 122.469 122.521 121.271 122.273 120.042C120.984 113.648 121.352 109.151 123.308 107.381C141.2 91.1887 144.223 81.7017 144.223 61.4149C144.224 53.576 142.619 46.3488 139.453 39.9328ZM77.0053 22.878C77.276 22.8822 77.4207 23.076 77.4585 23.1353C77.5406 23.264 77.5282 23.3539 77.5106 23.4069L67.6392 42.8106L69.647 29.1592C69.7626 28.3736 69.531 27.5783 69.0118 26.9774C68.4926 26.3764 67.7397 26.0316 66.9456 26.0316H56.2556C56.008 26.0316 55.9398 25.9432 55.9174 25.9145C55.8529 25.8309 55.8051 25.662 55.8602 25.4352L61.8245 4.54109H71.9393L66.602 19.0477C66.2978 19.8745 66.4128 20.8024 66.9099 21.5302C67.4067 22.2577 68.2289 22.7027 69.1105 22.7206L77.0053 22.878Z" fill="#F6EDED"/>
<path d="M125.064 130.028C124.658 128.841 123.368 128.208 122.181 128.612C120.995 129.017 120.361 130.308 120.765 131.494C121.127 132.554 121.523 133.664 121.942 134.796C122.291 135.737 122.228 136.744 121.764 137.631C121.303 138.514 120.517 139.137 119.552 139.386L77.0172 150.35C75.3379 150.783 73.5789 149.899 72.9268 148.294C70.3775 142.014 64.4035 127.31 49.1936 129.37C48.1316 129.514 47.0729 129.663 46.0297 129.809C40.888 130.531 35.5725 131.279 33.1941 130.889C28.1738 130.068 25.4198 127.995 24.5267 124.367C23.9682 122.139 24.6557 120.386 25.6456 118.805C26.7997 116.742 25.8382 114.304 24.2854 113.23C23.3025 112.549 22.2108 112.098 21.3916 111.823C21.4046 111.397 21.6507 110.776 22.6431 110.06C23.1414 109.701 23.4726 109.156 23.5619 108.548C23.6509 107.941 23.4905 107.323 23.1166 106.836C23.1166 106.754 21.4055 104.859 19.1004 102.982C20.9196 101.671 24.2028 98.8283 23.7626 95.6692C23.5734 94.312 22.647 92.4783 19.3075 91.4514C15.3219 90.2256 15.3183 88.6181 15.3165 87.7541C15.3138 86.5646 15.8911 85.7938 18.0027 84.1681C21.0682 81.8083 24.5712 78.7379 27.3107 73.8611C28.2407 72.2051 28.3518 70.1822 27.6077 68.4493C27.1721 67.4357 26.5693 66.4815 25.9868 65.5591C25.151 64.2352 24.2037 62.7351 24.4056 61.8681C24.5192 61.3807 24.8319 60.7198 25.194 59.9542C26.0837 58.0732 27.3025 55.4969 27.5587 51.5768C27.8402 47.2561 28.7424 43.1639 30.2403 39.4139C30.7053 38.2493 30.1386 36.9284 28.974 36.4631C27.809 35.9978 26.4885 36.5648 26.0232 37.7295C24.3478 41.9236 23.3397 46.4835 23.027 51.2813C22.8278 54.3374 21.9041 56.2895 21.0891 58.0121C20.6353 58.9715 20.2066 59.8779 19.9829 60.8378C19.3502 63.554 20.836 65.9072 22.1469 67.9834C22.6579 68.7929 23.1408 69.5576 23.4351 70.2418C23.6249 70.6838 23.5934 71.2058 23.3512 71.6372C21.4654 74.9936 19.1134 77.5817 15.2323 80.5698C13.454 81.9388 10.7666 84.0077 10.7751 87.7641C10.7836 91.6246 13.2049 94.3256 17.9724 95.7918C18.7441 96.0291 19.0947 96.2544 19.2358 96.3685C19.0096 97.1002 17.4293 98.6748 15.8784 99.6868C15.631 99.8473 15.417 100.054 15.2487 100.297C14.2696 101.707 13.788 104.581 16.4736 106.723C17.1399 107.254 17.6918 107.741 18.1341 108.157C16.2438 110.673 16.7566 113.454 17.7917 114.971C18.1208 115.453 18.6227 115.79 19.1937 115.912C19.2073 115.915 20.5157 116.213 21.5323 116.853C20.5472 118.6 19.078 121.235 20.1164 125.453C21.4603 130.913 25.6133 134.25 32.4597 135.371C35.5171 135.871 40.6815 135.146 46.66 134.306C47.6963 134.161 48.7477 134.013 49.8021 133.87C60.104 132.474 64.9815 140.799 68.7179 150.002C69.9645 153.073 72.9644 155.001 76.1613 155C76.8201 155 77.4876 154.918 78.1491 154.748L120.684 143.784C122.878 143.218 124.738 141.742 125.787 139.735C126.839 137.723 126.988 135.347 126.198 133.217C125.795 132.123 125.412 131.05 125.064 130.028Z" fill="#F6EDED"/>
<path d="M66.8344 69.2553C70.641 69.2553 73.7383 66.1583 73.7383 62.3514C73.7383 58.5445 70.6413 55.4476 66.8344 55.4476C63.0275 55.4476 59.9302 58.5445 59.9302 62.3514C59.9302 66.1583 63.0272 69.2553 66.8344 69.2553ZM66.8344 59.9883C68.1374 59.9883 69.1972 61.0482 69.1972 62.3511C69.1972 63.6541 68.1374 64.714 66.8344 64.714C65.5314 64.714 64.4713 63.6541 64.4713 62.3511C64.4713 61.0482 65.5314 59.9883 66.8344 59.9883Z" fill="#F6EDED"/>
<path d="M56.3734 48.128C51.9274 51.4296 49.2733 56.703 49.2733 62.2344C49.2733 67.9737 52.0875 73.3625 56.8015 76.649C57.1972 76.9248 57.6497 77.0571 58.0978 77.0571C58.8153 77.0571 59.521 76.718 59.9624 76.085C60.6796 75.0563 60.4271 73.641 59.3984 72.9238C55.9017 70.4861 53.8143 66.49 53.8143 62.2344C53.8143 58.072 55.734 54.2593 59.0808 51.7738C60.0874 51.0261 60.2978 49.6041 59.55 48.5972C58.8026 47.5906 57.3806 47.3802 56.3734 48.128Z" fill="#F6EDED"/>
<path d="M53.4209 81.4343C51.0768 79.8001 49.0688 77.7767 47.4528 75.4211C46.7435 74.3869 45.3306 74.1236 44.2962 74.8329C43.262 75.5422 42.9987 76.9553 43.7083 77.9895C45.6349 80.7986 48.0289 83.2107 50.824 85.1594C51.2197 85.4352 51.6723 85.5675 52.1204 85.5675C52.8378 85.5675 53.5435 85.2285 53.9849 84.5954C54.7021 83.5664 54.4496 82.1512 53.4209 81.4343Z" fill="#F6EDED"/>
<path d="M50.1406 39.6413C43.045 44.9107 38.8087 53.3269 38.8087 62.1545C38.8087 63.9103 38.9722 65.6677 39.2949 67.3785C39.4569 68.2371 40.5613 69.4484 41.9472 69.1886C43.1794 68.9561 43.9898 67.7688 43.7573 66.5363C43.4867 65.1025 43.3495 63.6282 43.3495 62.1542C43.3495 54.6465 46.8117 47.7695 52.8477 43.2866C53.8543 42.5391 54.0647 41.1168 53.3169 40.1099C52.5698 39.1036 51.1472 38.8938 50.1406 39.6413Z" fill="#F6EDED"/>
</g>
<defs>
<clipPath id="clip0">
<rect width="155" height="155" fill="white"/>
</clipPath>
</defs>
</svg>
