<svg width="416" height="143" viewBox="0 0 416 143" fill="none" xmlns="http://www.w3.org/2000/svg">
<path d="M236.259 11.384V47H231.843V42.968C230.819 44.376 229.523 45.448 227.955 46.184C226.387 46.92 224.659 47.288 222.771 47.288C220.307 47.288 218.099 46.744 216.147 45.656C214.195 44.568 212.659 43.048 211.539 41.096C210.451 39.112 209.907 36.84 209.907 34.28C209.907 31.72 210.451 29.464 211.539 27.512C212.659 25.56 214.195 24.04 216.147 22.952C218.099 21.864 220.307 21.32 222.771 21.32C224.595 21.32 226.275 21.672 227.811 22.376C229.347 23.048 230.627 24.056 231.651 25.4V11.384H236.259ZM223.155 43.256C224.755 43.256 226.211 42.888 227.523 42.152C228.835 41.384 229.859 40.328 230.595 38.984C231.331 37.608 231.699 36.04 231.699 34.28C231.699 32.52 231.331 30.968 230.595 29.624C229.859 28.248 228.835 27.192 227.523 26.456C226.211 25.72 224.755 25.352 223.155 25.352C221.523 25.352 220.051 25.72 218.739 26.456C217.459 27.192 216.435 28.248 215.667 29.624C214.931 30.968 214.563 32.52 214.563 34.28C214.563 36.04 214.931 37.608 215.667 38.984C216.435 40.328 217.459 41.384 218.739 42.152C220.051 42.888 221.523 43.256 223.155 43.256ZM244.977 21.56H249.585V47H244.977V21.56ZM247.281 16.664C246.385 16.664 245.633 16.376 245.025 15.8C244.449 15.224 244.161 14.52 244.161 13.688C244.161 12.856 244.449 12.152 245.025 11.576C245.633 10.968 246.385 10.664 247.281 10.664C248.177 10.664 248.913 10.952 249.489 11.528C250.097 12.072 250.401 12.76 250.401 13.592C250.401 14.456 250.097 15.192 249.489 15.8C248.913 16.376 248.177 16.664 247.281 16.664ZM265.68 47.288C263.6 47.288 261.6 47.016 259.68 46.472C257.76 45.896 256.256 45.176 255.168 44.312L257.088 40.664C258.208 41.464 259.568 42.104 261.168 42.584C262.768 43.064 264.384 43.304 266.016 43.304C270.048 43.304 272.064 42.152 272.064 39.848C272.064 39.08 271.792 38.472 271.248 38.024C270.704 37.576 270.016 37.256 269.184 37.064C268.384 36.84 267.232 36.6 265.728 36.344C263.68 36.024 262 35.656 260.688 35.24C259.408 34.824 258.304 34.12 257.376 33.128C256.448 32.136 255.984 30.744 255.984 28.952C255.984 26.648 256.944 24.808 258.864 23.432C260.784 22.024 263.36 21.32 266.592 21.32C268.288 21.32 269.984 21.528 271.68 21.944C273.376 22.36 274.768 22.92 275.856 23.624L273.888 27.272C271.808 25.928 269.36 25.256 266.544 25.256C264.592 25.256 263.104 25.576 262.08 26.216C261.056 26.856 260.544 27.704 260.544 28.76C260.544 29.592 260.832 30.248 261.408 30.728C261.984 31.208 262.688 31.56 263.52 31.784C264.384 32.008 265.584 32.264 267.12 32.552C269.168 32.904 270.816 33.288 272.064 33.704C273.344 34.088 274.432 34.76 275.328 35.72C276.224 36.68 276.672 38.024 276.672 39.752C276.672 42.056 275.68 43.896 273.696 45.272C271.744 46.616 269.072 47.288 265.68 47.288ZM296.735 45.512C296.063 46.088 295.231 46.536 294.239 46.856C293.247 47.144 292.223 47.288 291.167 47.288C288.607 47.288 286.623 46.6 285.215 45.224C283.807 43.848 283.103 41.88 283.103 39.32V25.352H278.783V21.56H283.103V15.992H287.711V21.56H295.007V25.352H287.711V39.128C287.711 40.504 288.047 41.56 288.719 42.296C289.423 43.032 290.415 43.4 291.695 43.4C293.103 43.4 294.303 43 295.295 42.2L296.735 45.512ZM311.57 21.32C315.09 21.32 317.778 22.184 319.634 23.912C321.522 25.64 322.466 28.216 322.466 31.64V47H318.098V43.64C317.33 44.824 316.226 45.736 314.786 46.376C313.378 46.984 311.698 47.288 309.746 47.288C306.898 47.288 304.61 46.6 302.882 45.224C301.186 43.848 300.338 42.04 300.338 39.8C300.338 37.56 301.154 35.768 302.786 34.424C304.418 33.048 307.01 32.36 310.562 32.36H317.858V31.448C317.858 29.464 317.282 27.944 316.13 26.888C314.978 25.832 313.282 25.304 311.042 25.304C309.538 25.304 308.066 25.56 306.626 26.072C305.186 26.552 303.97 27.208 302.978 28.04L301.058 24.584C302.37 23.528 303.938 22.728 305.762 22.184C307.586 21.608 309.522 21.32 311.57 21.32ZM310.514 43.736C312.274 43.736 313.794 43.352 315.074 42.584C316.354 41.784 317.282 40.664 317.858 39.224V35.672H310.754C306.85 35.672 304.898 36.984 304.898 39.608C304.898 40.888 305.394 41.896 306.386 42.632C307.378 43.368 308.754 43.736 310.514 43.736ZM344.577 21.32C347.809 21.32 350.369 22.264 352.257 24.152C354.177 26.008 355.137 28.744 355.137 32.36V47H350.529V32.888C350.529 30.424 349.937 28.568 348.753 27.32C347.569 26.072 345.873 25.448 343.665 25.448C341.169 25.448 339.201 26.184 337.761 27.656C336.321 29.096 335.601 31.176 335.601 33.896V47H330.993V21.56H335.409V25.4C336.337 24.088 337.585 23.08 339.153 22.376C340.753 21.672 342.561 21.32 344.577 21.32ZM374.894 47.288C372.302 47.288 369.982 46.728 367.934 45.608C365.918 44.488 364.334 42.952 363.182 41C362.03 39.016 361.454 36.776 361.454 34.28C361.454 31.784 362.03 29.56 363.182 27.608C364.334 25.624 365.918 24.088 367.934 23C369.982 21.88 372.302 21.32 374.894 21.32C377.198 21.32 379.246 21.784 381.038 22.712C382.862 23.64 384.27 24.984 385.262 26.744L381.758 29C380.958 27.784 379.966 26.872 378.782 26.264C377.598 25.656 376.286 25.352 374.846 25.352C373.182 25.352 371.678 25.72 370.334 26.456C369.022 27.192 367.982 28.248 367.214 29.624C366.478 30.968 366.11 32.52 366.11 34.28C366.11 36.072 366.478 37.656 367.214 39.032C367.982 40.376 369.022 41.416 370.334 42.152C371.678 42.888 373.182 43.256 374.846 43.256C376.286 43.256 377.598 42.952 378.782 42.344C379.966 41.736 380.958 40.824 381.758 39.608L385.262 41.816C384.27 43.576 382.862 44.936 381.038 45.896C379.246 46.824 377.198 47.288 374.894 47.288ZM413.844 34.424C413.844 34.776 413.812 35.24 413.748 35.816H393.108C393.396 38.056 394.372 39.864 396.036 41.24C397.732 42.584 399.828 43.256 402.324 43.256C405.364 43.256 407.812 42.232 409.668 40.184L412.212 43.16C411.06 44.504 409.62 45.528 407.892 46.232C406.196 46.936 404.292 47.288 402.18 47.288C399.492 47.288 397.108 46.744 395.028 45.656C392.948 44.536 391.332 42.984 390.18 41C389.06 39.016 388.5 36.776 388.5 34.28C388.5 31.816 389.044 29.592 390.132 27.608C391.252 25.624 392.772 24.088 394.692 23C396.644 21.88 398.836 21.32 401.268 21.32C403.7 21.32 405.86 21.88 407.748 23C409.668 24.088 411.156 25.624 412.212 27.608C413.3 29.592 413.844 31.864 413.844 34.424ZM401.268 25.208C399.06 25.208 397.204 25.88 395.7 27.224C394.228 28.568 393.364 30.328 393.108 32.504H409.428C409.172 30.36 408.292 28.616 406.788 27.272C405.316 25.896 403.476 25.208 401.268 25.208Z" fill="black"/>
<line x1="209" y1="75.5" x2="416" y2="75.5" stroke="black" stroke-width="3"/>
<path d="M274.672 129.512C274 130.088 273.168 130.536 272.176 130.856C271.184 131.144 270.16 131.288 269.104 131.288C266.544 131.288 264.56 130.6 263.152 129.224C261.744 127.848 261.04 125.88 261.04 123.32V109.352H256.72V105.56H261.04V99.992H265.648V105.56H272.944V109.352H265.648V123.128C265.648 124.504 265.984 125.56 266.656 126.296C267.36 127.032 268.352 127.4 269.632 127.4C271.04 127.4 272.24 127 273.232 126.2L274.672 129.512ZM280.243 105.56H284.851V131H280.243V105.56ZM282.547 100.664C281.651 100.664 280.899 100.376 280.291 99.8C279.715 99.224 279.427 98.52 279.427 97.688C279.427 96.856 279.715 96.152 280.291 95.576C280.899 94.968 281.651 94.664 282.547 94.664C283.443 94.664 284.179 94.952 284.755 95.528C285.363 96.072 285.667 96.76 285.667 97.592C285.667 98.456 285.363 99.192 284.755 99.8C284.179 100.376 283.443 100.664 282.547 100.664ZM325.473 105.32C328.673 105.32 331.201 106.248 333.057 108.104C334.945 109.96 335.889 112.712 335.889 116.36V131H331.281V116.888C331.281 114.424 330.705 112.568 329.553 111.32C328.433 110.072 326.817 109.448 324.705 109.448C322.369 109.448 320.513 110.184 319.137 111.656C317.761 113.096 317.073 115.176 317.073 117.896V131H312.465V116.888C312.465 114.424 311.889 112.568 310.737 111.32C309.617 110.072 308.001 109.448 305.889 109.448C303.553 109.448 301.697 110.184 300.321 111.656C298.945 113.096 298.257 115.176 298.257 117.896V131H293.649V105.56H298.065V109.352C298.993 108.04 300.209 107.048 301.713 106.376C303.217 105.672 304.929 105.32 306.849 105.32C308.833 105.32 310.593 105.72 312.129 106.52C313.665 107.32 314.849 108.488 315.681 110.024C316.641 108.552 317.969 107.4 319.665 106.568C321.393 105.736 323.329 105.32 325.473 105.32ZM367.501 118.424C367.501 118.776 367.469 119.24 367.405 119.816H346.765C347.053 122.056 348.029 123.864 349.693 125.24C351.389 126.584 353.485 127.256 355.981 127.256C359.021 127.256 361.469 126.232 363.325 124.184L365.869 127.16C364.717 128.504 363.277 129.528 361.549 130.232C359.853 130.936 357.949 131.288 355.837 131.288C353.149 131.288 350.765 130.744 348.685 129.656C346.605 128.536 344.989 126.984 343.837 125C342.717 123.016 342.157 120.776 342.157 118.28C342.157 115.816 342.701 113.592 343.789 111.608C344.909 109.624 346.429 108.088 348.349 107C350.301 105.88 352.493 105.32 354.925 105.32C357.357 105.32 359.517 105.88 361.405 107C363.325 108.088 364.813 109.624 365.869 111.608C366.957 113.592 367.501 115.864 367.501 118.424ZM354.925 109.208C352.717 109.208 350.861 109.88 349.357 111.224C347.885 112.568 347.021 114.328 346.765 116.504H363.085C362.829 114.36 361.949 112.616 360.445 111.272C358.973 109.896 357.133 109.208 354.925 109.208Z" fill="black"/>
<path d="M11.664 94.288C9.584 94.288 7.584 94.016 5.664 93.472C3.744 92.896 2.24 92.176 1.152 91.312L3.072 87.664C4.192 88.464 5.552 89.104 7.152 89.584C8.752 90.064 10.368 90.304 12 90.304C16.032 90.304 18.048 89.152 18.048 86.848C18.048 86.08 17.776 85.472 17.232 85.024C16.688 84.576 16 84.256 15.168 84.064C14.368 83.84 13.216 83.6 11.712 83.344C9.664 83.024 7.984 82.656 6.672 82.24C5.392 81.824 4.288 81.12 3.36 80.128C2.432 79.136 1.968 77.744 1.968 75.952C1.968 73.648 2.928 71.808 4.848 70.432C6.768 69.024 9.344 68.32 12.576 68.32C14.272 68.32 15.968 68.528 17.664 68.944C19.36 69.36 20.752 69.92 21.84 70.624L19.872 74.272C17.792 72.928 15.344 72.256 12.528 72.256C10.576 72.256 9.088 72.576 8.064 73.216C7.04 73.856 6.528 74.704 6.528 75.76C6.528 76.592 6.816 77.248 7.392 77.728C7.968 78.208 8.672 78.56 9.504 78.784C10.368 79.008 11.568 79.264 13.104 79.552C15.152 79.904 16.8 80.288 18.048 80.704C19.328 81.088 20.416 81.76 21.312 82.72C22.208 83.68 22.656 85.024 22.656 86.752C22.656 89.056 21.664 90.896 19.68 92.272C17.728 93.616 15.056 94.288 11.664 94.288ZM41.9029 68.32C44.3669 68.32 46.5749 68.864 48.5269 69.952C50.4789 71.04 51.9989 72.56 53.0869 74.512C54.2069 76.464 54.7669 78.72 54.7669 81.28C54.7669 83.84 54.2069 86.112 53.0869 88.096C51.9989 90.048 50.4789 91.568 48.5269 92.656C46.5749 93.744 44.3669 94.288 41.9029 94.288C40.0789 94.288 38.3989 93.936 36.8629 93.232C35.3589 92.528 34.0789 91.504 33.0229 90.16V103.312H28.4149V68.56H32.8309V72.592C33.8549 71.184 35.1509 70.128 36.7189 69.424C38.2869 68.688 40.0149 68.32 41.9029 68.32ZM41.5189 90.256C43.1509 90.256 44.6069 89.888 45.8869 89.152C47.1989 88.384 48.2229 87.328 48.9589 85.984C49.7269 84.608 50.1109 83.04 50.1109 81.28C50.1109 79.52 49.7269 77.968 48.9589 76.624C48.2229 75.248 47.1989 74.192 45.8869 73.456C44.6069 72.72 43.1509 72.352 41.5189 72.352C39.9189 72.352 38.4629 72.736 37.1509 73.504C35.8709 74.24 34.8469 75.28 34.0789 76.624C33.3429 77.968 32.9749 79.52 32.9749 81.28C32.9749 83.04 33.3429 84.608 34.0789 85.984C34.8149 87.328 35.8389 88.384 37.1509 89.152C38.4629 89.888 39.9189 90.256 41.5189 90.256ZM84.1256 81.424C84.1256 81.776 84.0936 82.24 84.0296 82.816H63.3896C63.6776 85.056 64.6536 86.864 66.3176 88.24C68.0136 89.584 70.1096 90.256 72.6056 90.256C75.6456 90.256 78.0936 89.232 79.9496 87.184L82.4936 90.16C81.3416 91.504 79.9016 92.528 78.1736 93.232C76.4776 93.936 74.5736 94.288 72.4616 94.288C69.7736 94.288 67.3896 93.744 65.3096 92.656C63.2296 91.536 61.6136 89.984 60.4616 88C59.3416 86.016 58.7816 83.776 58.7816 81.28C58.7816 78.816 59.3256 76.592 60.4136 74.608C61.5336 72.624 63.0536 71.088 64.9736 70C66.9256 68.88 69.1176 68.32 71.5496 68.32C73.9816 68.32 76.1416 68.88 78.0296 70C79.9496 71.088 81.4376 72.624 82.4936 74.608C83.5816 76.592 84.1256 78.864 84.1256 81.424ZM71.5496 72.208C69.3416 72.208 67.4856 72.88 65.9816 74.224C64.5096 75.568 63.6456 77.328 63.3896 79.504H79.7096C79.4536 77.36 78.5736 75.616 77.0696 74.272C75.5976 72.896 73.7576 72.208 71.5496 72.208ZM113.516 81.424C113.516 81.776 113.484 82.24 113.42 82.816H92.7803C93.0683 85.056 94.0443 86.864 95.7083 88.24C97.4043 89.584 99.5003 90.256 101.996 90.256C105.036 90.256 107.484 89.232 109.34 87.184L111.884 90.16C110.732 91.504 109.292 92.528 107.564 93.232C105.868 93.936 103.964 94.288 101.852 94.288C99.1643 94.288 96.7803 93.744 94.7003 92.656C92.6203 91.536 91.0043 89.984 89.8523 88C88.7323 86.016 88.1723 83.776 88.1723 81.28C88.1723 78.816 88.7163 76.592 89.8043 74.608C90.9243 72.624 92.4443 71.088 94.3643 70C96.3163 68.88 98.5083 68.32 100.94 68.32C103.372 68.32 105.532 68.88 107.42 70C109.34 71.088 110.828 72.624 111.884 74.608C112.972 76.592 113.516 78.864 113.516 81.424ZM100.94 72.208C98.7323 72.208 96.8763 72.88 95.3723 74.224C93.9003 75.568 93.0363 77.328 92.7803 79.504H109.1C108.844 77.36 107.964 75.616 106.46 74.272C104.988 72.896 103.148 72.208 100.94 72.208ZM143.915 58.384V94H139.499V89.968C138.475 91.376 137.179 92.448 135.611 93.184C134.043 93.92 132.315 94.288 130.427 94.288C127.963 94.288 125.755 93.744 123.803 92.656C121.851 91.568 120.315 90.048 119.195 88.096C118.107 86.112 117.563 83.84 117.563 81.28C117.563 78.72 118.107 76.464 119.195 74.512C120.315 72.56 121.851 71.04 123.803 69.952C125.755 68.864 127.963 68.32 130.427 68.32C132.251 68.32 133.931 68.672 135.467 69.376C137.003 70.048 138.283 71.056 139.307 72.4V58.384H143.915ZM130.811 90.256C132.411 90.256 133.867 89.888 135.179 89.152C136.491 88.384 137.515 87.328 138.251 85.984C138.987 84.608 139.355 83.04 139.355 81.28C139.355 79.52 138.987 77.968 138.251 76.624C137.515 75.248 136.491 74.192 135.179 73.456C133.867 72.72 132.411 72.352 130.811 72.352C129.179 72.352 127.707 72.72 126.395 73.456C125.115 74.192 124.091 75.248 123.323 76.624C122.587 77.968 122.219 79.52 122.219 81.28C122.219 83.04 122.587 84.608 123.323 85.984C124.091 87.328 125.115 88.384 126.395 89.152C127.707 89.888 129.179 90.256 130.811 90.256ZM164.372 69.616H185.876V73.408H164.372V69.616ZM164.372 80.992H185.876V84.784H164.372V80.992Z" fill="black"/>
</svg>
